#!OML:ASF F:\VICON\USERDATA\INSTALL\Justin_Nancy\Justin_Nancy.ASF
:FULLY-SPECIFIED
:DEGREES
254
root 0.933606 17.3785 -15.1548 3.26878 0.618258 4.18726
lowerback 7.24802 -1.75959 -5.21108
upperback 0.128018 -2.71193 1.69359
thorax -3.60921 -1.24441 4.96744
lowerneck -17.0121 -3.52891 -9.88742
upperneck 18.8666 -3.62789 6.25144
head 9.02582 -1.7494 3.31542
rclavicle 1.8487e-014 -2.38542e-015
rhumerus -39.7507 -23.2427 -70.124
rradius 23.173
rwrist 15.3102
rhand -15.7805 12.7975
rfingers 7.12502
rthumb 10.4119 -16.9247
lclavicle 1.8487e-014 -2.38542e-015
lhumerus -24.5122 5.9157 83.6815
lradius 36.5148
lwrist -7.98852
lhand -14.7358 24.1162
lfingers 7.12502
lthumb 11.4195 53.7852
rfemur -29.4798 3.83767 17.508
rtibia 26.5059
rfoot 2.24609 -2.93541
rtoes -10.3948
lfemur 7.98073 -6.10119 -26.473
ltibia 32.8719
lfoot 6.95255 -8.47653
ltoes -16.0375
255
root 0.909691 17.4089 -14.9535 3.14055 0.751226 3.86224
lowerback 7.22793 -1.80534 -5.03114
upperback 0.137478 -2.75131 1.83694
thorax -3.58441 -1.26722 5.01835
lowerneck -17.0601 -3.4857 -9.73783
upperneck 18.9243 -3.56983 6.09298
head 9.04333 -1.72822 3.24357
rclavicle 3.90612e-014 -1.03368e-014
rhumerus -39.847 -24.1174 -69.5202
rradius 22.7248
rwrist 16.3765
rhand -15.635 12.7674
rfingers 7.12502
rthumb 10.5523 -16.9477
lclavicle 3.90612e-014 -1.03368e-014
lhumerus -24.9261 6.25353 83.7221
lradius 36.2855
lwrist -7.75023
lhand -13.8458 25.0912
lfingers 7.12502
lthumb 12.2778 54.7108
rfemur -28.6125 3.88703 18.043
rtibia 26.6605
rfoot 1.81867 -3.13368
rtoes -7.39956
lfemur 6.77946 -5.98841 -25.8504
ltibia 35.3456
lfoot 9.42646 -9.43787
ltoes -15.6679
256
root 0.887833 17.4513 -14.7568 3.04244 0.909708 3.43452
lowerback 7.33994 -1.84132 -4.69712
upperback 0.0709318 -2.76974 2.02894
thorax -3.72036 -1.27485 5.03999
lowerneck -17.0195 -3.51388 -9.78976
upperneck 18.9473 -3.57976 6.00346
head 9.04462 -1.74715 3.22007
rclavicle 1.60022e-014 -1.03368e-014
rhumerus -39.9147 -24.9229 -68.9042
rradius 22.2182
rwrist 17.2565
rhand -15.7175 13.242
rfingers 7.12502
rthumb 10.4726 -16.4771
lclavicle 1.60022e-014 -1.03368e-014
lhumerus -25.4787 6.38087 83.8345
lradius 36.267
lwrist -7.42991
lhand -13.8646 26.107
lfingers 7.12502
lthumb 12.2596 55.7277
rfemur -27.7028 3.79279 18.7422
rtibia 26.5789
rfoot 1.53029 -3.22487
rtoes -5.34032
lfemur 5.23992 -5.92968 -25.18
ltibia 37.8707
lfoot 11.9902 -10.713
ltoes -15.317
257
root 0.866422 17.4988 -14.5532 2.8434 1.20057 2.96557
lowerback 7.34551 -1.90403 -4.22657
upperback 0.0841983 -2.80725 2.18351
thorax -3.71939 -1.30113 4.939
lowerneck -16.836 -3.55939 -9.79328
upperneck 18.9024 -3.6371 5.90404
head 8.99951 -1.78714 3.17878
rclavicle 4.76089e-014 -7.15625e-015
rhumerus -40.0776 -25.4032 -68.5227
rradius 22.0399
rwrist 17.6041
rhand -15.6325 13.7408
rfingers 7.12502
rthumb 10.5546 -15.9742
lclavicle 4.76089e-014 -7.15625e-015
lhumerus -25.8682 6.65126 83.9167
lradius 36.1924
lwrist -7.57784
lhand -14.7963 26.7284
lfingers 7.12502
lthumb 11.3612 56.4007
rfemur -26.5294 3.69241 19.4627
rtibia 26.2783
rfoot 1.30154 -3.42926
rtoes -4.22888
lfemur 3.73532 -6.06541 -24.4774
ltibia 40.4284
lfoot 15.2074 -11.5831
ltoes -12.3444
258
root 0.846503 17.5316 -14.355 2.66872 1.54271 2.47572
lowerback 7.29284 -1.94748 -3.66889
upperback 0.153833 -2.81205 2.27636
thorax -3.6383 -1.31638 4.71609
lowerneck -17.0171 -3.66883 -9.75352
upperneck 19.0227 -3.77924 5.87877
head 9.08496 -1.852 3.14494
rclavicle 2.85256e-014 3.97569e-015
rhumerus -40.2467 -24.8439 -68.9453
rradius 22.5534
rwrist 16.5721
rhand -15.6116 13.7303
rfingers 7.12502
rthumb 10.5748 -15.9837
lclavicle 2.85256e-014 3.97569e-015
lhumerus -26.1647 6.65647 83.9569
lradius 36.051
lwrist -7.83974
lhand -15.3599 27.1532
lfingers 7.12502
lthumb 10.8176 56.8546
rfemur -25.2643 3.76541 20.1346
rtibia 25.8079
rfoot 0.986893 -3.96759
rtoes -2.5008
lfemur 2.36832 -6.40626 -23.7348
ltibia 43.0313
lfoot 18.8058 -11.5204
ltoes -5.95093
